<svg version="1.1" viewBox="0 0 48 48" xmlns="http://www.w3.org/2000/svg">
 <g transform="rotate(90 23.603 25.301)">
  <g transform="matrix(0 -2.7116 -2.7116 0 -36.255 87.346)" fill="#5f5fd3">
   <path d="m22.938-20.775c-0.19966 0-0.39932-0.05107-0.57812-0.1543-0.35761-0.20646-0.57375-0.52316-0.57375-0.93609-5.5e-5 -0.10799 0.08224-0.20849 0.20308-0.20844h0.9488 0.96186c0.12146-5.5e-5 0.19882 0.10026 0.19876 0.20844 0 0.41293-0.22489 0.72963-0.5825 0.93609-0.1788 0.10323-0.37846 0.1543-0.57812 0.1543z" color="#000000" fill="#5f5fd3" stroke-linecap="round" stroke-linejoin="round" style="-inkscape-stroke:none"/>
  </g>
  <path d="m23.601 32.749c-0.0011 1.1833-0.1519 2.1414-1.3352 2.1396-3.4824 0-6.3488-1.8618-8.09-4.8777-1.7412-3.0159-1.7412-6.7395 0-9.7553 1.7412-3.0159 4.6076-4.8777 8.09-4.8777 1.1833-0.0019 1.3341 0.95633 1.3352 2.1396 0.0019 1.1853-0.14984 2.1467-1.3352 2.1449-1.959 0-3.4033 1.0362-4.3828 2.7328s-0.9795 3.7796 0 5.4761c0.9795 1.6966 2.4238 2.7381 4.3828 2.7381 1.1833-0.0019 1.334 0.95633 1.3352 2.1396z" color="#000000" fill="#5500d4" stroke-linecap="round" stroke-linejoin="round" stroke-width="2.7116" style="-inkscape-stroke:none"/>
  <path d="m26.133 39.942a0.92493 0.92493 0 0 0 0.9249 0.9249h0.14549a0.92493 0.92493 0 0 0 0.9249-0.9249v-30.075a0.92493 0.92493 0 0 0-0.9249-0.9249h-0.14549a0.92493 0.92493 0 0 0-0.9249 0.9249z" color="#000000" fill="#5f5fd3" stroke-linecap="round" stroke-linejoin="round" stroke-width="1.3302" style="-inkscape-stroke:none"/>
  <g transform="matrix(0 -1.3302 1.3302 0 -10.369 57.027)" fill="#5500d4" stroke-linecap="round" stroke-linejoin="round">
   <path d="m15.827 30.831h16.642v0.14187h-16.642z" color="#000000" style="-inkscape-stroke:none"/>
   <path d="m15.826 30.152a0.67913 0.67913 0 0 0-0.67773 0.67969v0.14062a0.67913 0.67913 0 0 0 0.67773 0.67969h16.643a0.67913 0.67913 0 0 0 0.67969-0.67969v-0.14062a0.67913 0.67913 0 0 0-0.67969-0.67969z" color="#000000" style="-inkscape-stroke:none"/>
  </g>
 </g>
</svg>
